<svg width="180" height="180" viewBox="0 0 180 180" fill="none" xmlns="http://www.w3.org/2000/svg">
<rect x="90" y="90" width="90" height="90" transform="rotate(-180 90 90)" fill="#2C6269"/>
<path fill-rule="evenodd" clip-rule="evenodd" d="M90 180C139.706 180 180 139.706 180 90C180 40.2944 139.706 0 90 0C40.2944 0 0 40.2944 0 90C0 139.706 40.2944 180 90 180ZM90 119.7C106.403 119.7 119.7 106.403 119.7 90C119.7 73.5971 106.403 60.3 90 60.3C73.5971 60.3 60.3 73.5971 60.3 90C60.3 106.403 73.5971 119.7 90 119.7Z" fill="#F67E7E"/>
<path fill-rule="evenodd" clip-rule="evenodd" d="M90 0H0V3.6H90V0ZM90 7.20002H0V10.8H90V7.20002ZM0 14.4H90V18H0V14.4ZM90 21.6001H0V25.2001H90V21.6001ZM0 28.8H90V32.4H0V28.8ZM90 36H0V39.6H90V36Z" fill="#79C8C7"/>
</svg>
