<svg width="1440" height="744" viewBox="0 0 1440 744" fill="none" xmlns="http://www.w3.org/2000/svg">
<rect width="100" height="100" transform="matrix(1 0 0 -1 0 100)" fill="#002529"/>
<path fill-rule="evenodd" clip-rule="evenodd" d="M47 56H147V60H47V56ZM47 64H147V68H47V64ZM147 72H47V76H147V72ZM47 80H147V84H47V80ZM147 88H47V92H147V88ZM47 96H147V100H47V96Z" fill="#79C8C7"/>
<rect width="100" height="100" transform="matrix(1 0 0 -1 1340 644)" fill="#2C6269"/>
<path fill-rule="evenodd" clip-rule="evenodd" d="M1340 744C1284.77 744 1240 699.228 1240 644C1240 588.772 1284.77 544 1340 544C1395.23 544 1440 588.772 1440 644C1440 699.228 1395.23 744 1340 744ZM1340 677C1321.77 677 1307 662.225 1307 644C1307 625.775 1321.77 611 1340 611C1358.23 611 1373 625.775 1373 644C1373 662.225 1358.23 677 1340 677Z" fill="#012F34"/>
<path fill-rule="evenodd" clip-rule="evenodd" d="M1340 600H1440V604H1340V600ZM1340 608H1440V612H1340V608ZM1440 616H1340V620H1440V616ZM1340 624H1440V628H1340V624ZM1440 632H1340V636H1440V632ZM1340 640H1440V644H1340V640Z" fill="#79C8C7"/>
<path fill-rule="evenodd" clip-rule="evenodd" d="M1440 644H1436V648H1440V644ZM1429 644H1433V648H1429V644ZM1429 652H1433V656H1429V652ZM1433 660H1429V664H1433V660ZM1429 668H1433V672H1429V668ZM1433 676H1429V680H1433V676ZM1429 684H1433V688H1429V684ZM1426 644H1422V648H1426V644ZM1426 652H1422V656H1426V652ZM1422 660H1426V664H1422V660ZM1426 668H1422V672H1426V668ZM1422 676H1426V680H1422V676ZM1426 684H1422V688H1426V684ZM1440 652H1436V656H1440V652ZM1419 644H1415V648H1419V644ZM1419 652H1415V656H1419V652ZM1415 660H1419V664H1415V660ZM1419 668H1415V672H1419V668ZM1415 676H1419V680H1415V676ZM1419 684H1415V688H1419V684ZM1440 660H1436V664H1440V660ZM1412 644H1408V648H1412V644ZM1412 652H1408V656H1412V652ZM1408 660H1412V664H1408V660ZM1412 668H1408V672H1412V668ZM1408 676H1412V680H1408V676ZM1412 684H1408V688H1412V684ZM1440 668H1436V672H1440V668ZM1405 644H1401V648H1405V644ZM1405 652H1401V656H1405V652ZM1401 660H1405V664H1401V660ZM1405 668H1401V672H1405V668ZM1401 676H1405V680H1401V676ZM1405 684H1401V688H1405V684ZM1440 676H1436V680H1440V676ZM1398 644H1394V648H1398V644ZM1398 652H1394V656H1398V652ZM1394 660H1398V664H1394V660ZM1398 668H1394V672H1398V668ZM1394 676H1398V680H1394V676ZM1398 684H1394V688H1398V684ZM1440 684H1436V688H1440V684ZM1391 644H1387V648H1391V644ZM1391 652H1387V656H1391V652ZM1387 660H1391V664H1387V660ZM1391 668H1387V672H1391V668ZM1387 676H1391V680H1387V676ZM1391 684H1387V688H1391V684Z" fill="#F67E7E"/>
</svg>
